<?xml version="1.0" encoding="utf-8"?>
<!-- Generator: Adobe Illustrator 23.0.1, SVG Export Plug-In . SVG Version: 6.00 Build 0)  -->
<svg version="1.1" id="Layer_1" xmlns="http://www.w3.org/2000/svg" xmlns:xlink="http://www.w3.org/1999/xlink" x="0px" y="0px"
	 viewBox="0 0 525.5 127.9" style="enable-background:new 0 0 525.5 127.9;" xml:space="preserve">
<style type="text/css">
	.st0{fill:#FFFFFF;}
	.st1{fill:#35B5AC;}
</style>
<g>
	<g>
		<path class="st0" d="M331.5,124.2c-2.1,0-3.8-0.7-5.2-2.1c-1.4-1.4-2-3.1-2-5.1s0.7-3.7,2-5.1c1.4-1.4,3.1-2.1,5.2-2.1
			c1.3,0,2.4,0.3,3.5,0.9c1.1,0.6,1.9,1.4,2.5,2.4l-1.6,0.9c-0.4-0.8-1-1.4-1.8-1.8c-0.8-0.5-1.6-0.7-2.6-0.7
			c-1.6,0-2.9,0.5-3.9,1.5c-1,1-1.5,2.3-1.5,3.8c0,1.5,0.5,2.8,1.5,3.8c1,1,2.3,1.5,3.9,1.5c0.9,0,1.8-0.2,2.6-0.7
			c0.8-0.5,1.4-1.1,1.8-1.8l1.6,0.9c-0.6,1-1.4,1.8-2.5,2.5C333.9,123.9,332.8,124.2,331.5,124.2z"/>
		<path class="st0" d="M339.4,124v-14.4h1.7V124H339.4z"/>
		<path class="st0" d="M344.6,112.3c-0.3,0-0.6-0.1-0.8-0.3c-0.2-0.2-0.3-0.5-0.3-0.8c0-0.3,0.1-0.6,0.3-0.8
			c0.2-0.2,0.5-0.3,0.8-0.3c0.3,0,0.6,0.1,0.8,0.3c0.2,0.2,0.3,0.5,0.3,0.8c0,0.3-0.1,0.6-0.3,0.8
			C345.2,112.2,345,112.3,344.6,112.3z M343.8,124v-9.9h1.7v9.9H343.8z"/>
		<path class="st0" d="M352.7,124.2c-1.5,0-2.7-0.5-3.7-1.5c-1-1-1.5-2.2-1.5-3.7c0-1.5,0.5-2.7,1.5-3.7c1-1,2.2-1.5,3.7-1.5
			c1,0,1.8,0.2,2.6,0.7c0.8,0.5,1.4,1.1,1.7,1.9l-1.4,0.8c-0.2-0.5-0.6-0.9-1.2-1.3c-0.5-0.3-1.1-0.5-1.8-0.5c-1,0-1.8,0.3-2.5,1
			c-0.7,0.7-1,1.5-1,2.5c0,1,0.3,1.8,1,2.5c0.7,0.7,1.5,1,2.5,1c0.7,0,1.3-0.2,1.8-0.5c0.5-0.3,0.9-0.7,1.2-1.3l1.5,0.8
			c-0.4,0.8-1,1.4-1.8,1.9C354.6,124,353.7,124.2,352.7,124.2z"/>
		<path class="st0" d="M367.2,124h-2.1l-4.5-4.7v4.7h-1.7v-13.8h1.7v8.3l4.3-4.3h2.2l-4.7,4.8L367.2,124z"/>
		<path class="st0" d="M369.9,124.2c-0.4,0-0.7-0.1-0.9-0.4c-0.3-0.3-0.4-0.6-0.4-0.9c0-0.4,0.1-0.7,0.4-0.9
			c0.2-0.2,0.6-0.4,0.9-0.4c0.4,0,0.7,0.1,0.9,0.4c0.2,0.3,0.4,0.6,0.4,0.9c0,0.4-0.1,0.7-0.4,0.9
			C370.6,124.1,370.3,124.2,369.9,124.2z"/>
		<path class="st0" d="M383.2,124.2c-1.3,0-2.4-0.3-3.3-0.9c-0.9-0.6-1.6-1.4-1.9-2.5l1.6-0.9c0.5,1.7,1.8,2.5,3.7,2.5
			c0.9,0,1.7-0.2,2.2-0.6c0.5-0.4,0.8-0.9,0.8-1.5c0-0.7-0.2-1.2-0.8-1.5c-0.5-0.3-1.3-0.7-2.5-1c-0.6-0.2-1-0.3-1.3-0.5
			c-0.3-0.1-0.7-0.3-1.1-0.5c-0.5-0.2-0.8-0.5-1-0.7c-0.2-0.2-0.4-0.6-0.6-1c-0.2-0.4-0.3-0.8-0.3-1.3c0-1.2,0.4-2.1,1.3-2.9
			c0.8-0.7,1.9-1.1,3.1-1.1c1.1,0,2,0.3,2.9,0.8s1.4,1.3,1.8,2.2l-1.5,0.9c-0.6-1.4-1.6-2.1-3.1-2.1c-0.8,0-1.4,0.2-1.8,0.6
			s-0.7,0.9-0.7,1.5c0,0.6,0.2,1.1,0.7,1.4c0.4,0.3,1.2,0.6,2.3,1c0.4,0.1,0.6,0.2,0.8,0.3c0.2,0.1,0.4,0.1,0.7,0.3
			c0.3,0.1,0.6,0.2,0.7,0.3c0.2,0.1,0.4,0.2,0.6,0.3c0.3,0.1,0.5,0.3,0.6,0.4c0.1,0.1,0.3,0.3,0.5,0.5c0.2,0.2,0.3,0.4,0.4,0.6
			c0.1,0.2,0.1,0.4,0.2,0.7c0.1,0.3,0.1,0.5,0.1,0.8c0,1.2-0.4,2.2-1.3,2.9C385.8,123.9,384.6,124.2,383.2,124.2z"/>
		<path class="st0" d="M394.8,124.2c-1.5,0-2.7-0.5-3.7-1.5c-1-1-1.5-2.2-1.5-3.7c0-1.5,0.5-2.7,1.5-3.7c1-1,2.2-1.5,3.7-1.5
			c1,0,1.8,0.2,2.6,0.7c0.8,0.5,1.4,1.1,1.7,1.9l-1.4,0.8c-0.2-0.5-0.6-0.9-1.2-1.3c-0.5-0.3-1.1-0.5-1.8-0.5c-1,0-1.8,0.3-2.5,1
			c-0.7,0.7-1,1.5-1,2.5c0,1,0.3,1.8,1,2.5c0.7,0.7,1.5,1,2.5,1c0.7,0,1.2-0.2,1.8-0.5c0.5-0.3,0.9-0.7,1.2-1.3l1.5,0.8
			c-0.4,0.8-1,1.4-1.8,1.9C396.7,124,395.8,124.2,394.8,124.2z"/>
		<path class="st0" d="M409,114.1h1.7v9.9H409v-1.7c-0.9,1.3-2.1,2-3.7,2c-1.4,0-2.6-0.5-3.5-1.5c-1-1-1.5-2.2-1.5-3.7
			s0.5-2.7,1.5-3.7c1-1,2.2-1.5,3.5-1.5c1.6,0,2.9,0.7,3.7,2V114.1z M405.5,122.6c1,0,1.8-0.3,2.5-1c0.7-0.7,1-1.5,1-2.5
			s-0.3-1.8-1-2.5c-0.7-0.7-1.5-1-2.5-1c-1,0-1.8,0.3-2.5,1c-0.7,0.7-1,1.5-1,2.5s0.3,1.8,1,2.5
			C403.7,122.2,404.5,122.6,405.5,122.6z"/>
		<path class="st0" d="M418.3,113.9c1.2,0,2.1,0.4,2.8,1.1c0.7,0.7,1,1.7,1,3v6.1h-1.7v-6c0-0.8-0.2-1.4-0.7-1.9
			c-0.4-0.4-1-0.7-1.8-0.7c-0.9,0-1.5,0.3-2.1,0.8c-0.5,0.5-0.8,1.4-0.8,2.5v5.2h-1.7v-9.9h1.7v1.4
			C415.8,114.4,416.8,113.9,418.3,113.9z"/>
		<path class="st0" d="M425.6,124.2c-0.4,0-0.7-0.1-0.9-0.4c-0.2-0.3-0.4-0.6-0.4-0.9c0-0.4,0.1-0.7,0.4-0.9
			c0.2-0.2,0.6-0.4,0.9-0.4c0.4,0,0.7,0.1,0.9,0.4c0.2,0.3,0.4,0.6,0.4,0.9c0,0.4-0.1,0.7-0.4,0.9
			C426.2,124.1,425.9,124.2,425.6,124.2z"/>
		<path class="st0" d="M443.5,124l-1.1-3.1h-6.2L435,124h-2l5.2-13.8h2.1l5.2,13.8H443.5z M436.8,119.2h5l-2.5-6.8L436.8,119.2z"/>
		<path class="st0" d="M452.3,113.9c1.4,0,2.6,0.5,3.5,1.5c1,1,1.5,2.2,1.5,3.7s-0.5,2.7-1.5,3.7c-1,1-2.2,1.5-3.5,1.5
			c-1.6,0-2.9-0.7-3.7-2v5.6h-1.7v-13.8h1.7v1.7C449.5,114.5,450.7,113.9,452.3,113.9z M452.1,122.6c1,0,1.8-0.3,2.5-1
			c0.7-0.7,1-1.5,1-2.5s-0.3-1.8-1-2.5c-0.7-0.7-1.5-1-2.5-1c-1,0-1.8,0.3-2.5,1c-0.7,0.7-1,1.5-1,2.5s0.3,1.8,1,2.5
			C450.3,122.2,451.1,122.6,452.1,122.6z"/>
		<path class="st0" d="M464.8,113.9c1.4,0,2.6,0.5,3.5,1.5c1,1,1.5,2.2,1.5,3.7s-0.5,2.7-1.5,3.7c-1,1-2.2,1.5-3.5,1.5
			c-1.6,0-2.9-0.7-3.7-2v5.6h-1.7v-13.8h1.7v1.7C462,114.5,463.2,113.9,464.8,113.9z M464.6,122.6c1,0,1.8-0.3,2.5-1
			c0.7-0.7,1-1.5,1-2.5s-0.3-1.8-1-2.5c-0.7-0.7-1.5-1-2.5-1c-1,0-1.8,0.3-2.5,1c-0.7,0.7-1,1.5-1,2.5s0.3,1.8,1,2.5
			C462.8,122.2,463.6,122.6,464.6,122.6z"/>
		<path class="st0" d="M473.6,115.8c0.6-1.2,1.6-1.8,3.1-1.8v1.8c-0.8,0-1.6,0.2-2.2,0.7c-0.6,0.5-0.9,1.3-0.9,2.3v5.2h-1.7v-9.9
			h1.7V115.8z"/>
		<path class="st0" d="M486.1,122.7c-1,1-2.2,1.5-3.7,1.5s-2.7-0.5-3.7-1.5c-1-1-1.5-2.2-1.5-3.7c0-1.5,0.5-2.7,1.5-3.7
			c1-1,2.2-1.5,3.7-1.5s2.7,0.5,3.7,1.5c1,1,1.5,2.2,1.5,3.7C487.7,120.5,487.2,121.7,486.1,122.7z M482.5,122.6c1,0,1.8-0.3,2.5-1
			c0.7-0.7,1-1.5,1-2.5s-0.3-1.8-1-2.5c-0.7-0.7-1.5-1-2.5-1c-1,0-1.8,0.3-2.5,1c-0.7,0.7-1,1.5-1,2.5s0.3,1.8,1,2.5
			C480.7,122.2,481.5,122.6,482.5,122.6z"/>
		<path class="st0" d="M496.2,114.1h1.9l-3.9,9.9h-2l-3.9-9.9h1.9l3.1,8L496.2,114.1z"/>
		<path class="st0" d="M500.3,119.8c0.2,0.9,0.6,1.6,1.2,2.1c0.6,0.5,1.4,0.7,2.4,0.7c1.3,0,2.2-0.5,2.8-1.4l1.5,0.8
			c-1,1.5-2.4,2.2-4.3,2.2c-1.6,0-2.8-0.5-3.8-1.5c-1-1-1.5-2.2-1.5-3.7c0-1.5,0.5-2.7,1.4-3.7c1-1,2.2-1.5,3.7-1.5
			c1.4,0,2.6,0.5,3.5,1.5c0.9,1,1.4,2.2,1.4,3.7c0,0.3,0,0.5-0.1,0.8H500.3z M503.7,115.5c-0.9,0-1.7,0.3-2.3,0.8
			c-0.6,0.5-1,1.2-1.1,2.1h6.6c-0.1-0.9-0.5-1.6-1.1-2.1C505.2,115.7,504.5,115.5,503.7,115.5z"/>
		<path class="st0" d="M518.8,110.2h1.7V124h-1.7v-1.7c-0.9,1.3-2.1,2-3.7,2c-1.4,0-2.6-0.5-3.5-1.5c-1-1-1.5-2.2-1.5-3.7
			s0.5-2.7,1.5-3.7c1-1,2.2-1.5,3.5-1.5c1.6,0,2.9,0.7,3.7,2V110.2z M515.3,122.6c1,0,1.8-0.3,2.5-1c0.7-0.7,1-1.5,1-2.5
			s-0.3-1.8-1-2.5c-0.7-0.7-1.5-1-2.5-1c-1,0-1.8,0.3-2.5,1c-0.7,0.7-1,1.5-1,2.5s0.3,1.8,1,2.5
			C513.5,122.2,514.3,122.6,515.3,122.6z"/>
		<path class="st0" d="M524.2,124.2c-0.4,0-0.7-0.1-0.9-0.4c-0.3-0.3-0.4-0.6-0.4-0.9c0-0.4,0.1-0.7,0.4-0.9
			c0.2-0.2,0.6-0.4,0.9-0.4c0.4,0,0.7,0.1,0.9,0.4c0.2,0.3,0.4,0.6,0.4,0.9c0,0.4-0.1,0.7-0.4,0.9
			C524.9,124.1,524.6,124.2,524.2,124.2z"/>
	</g>
	<g>
		<path class="st0" d="M109.1,82.2L147.3,44c-1.6-2.2-3.2-4.2-4.9-5.9c-7.6-7.6-16.3-11.5-26.3-11.8c-10-0.3-18.6,3.3-26.1,10.7
			c-7.8,7.8-11.7,16.8-11.6,26.9c0.1,10.1,4,18.9,11.6,26.6c7.7,7.7,16.6,11.5,26.7,11.5s19.4-4.2,27.7-12.6l-11.6-12
			C125.2,85.2,117.2,86.8,109.1,82.2z M95.8,60.2c0.5-4.1,2.5-7.9,6-11.4c3-3,6.5-4.8,10.5-5.4c4-0.6,8.1,0.4,12.3,3.1L98.8,72.3
			C96.3,68.3,95.3,64.3,95.8,60.2z"/>
		<path class="st0" d="M175.8,8.5l-18.5,5.6v62c0,9.8,2.6,16.6,7.8,20.5c5.2,3.8,14.2,5,26.8,3.6V83.4c-3.5,0.2-6.5,0.2-8.9,0.1
			c-2.4-0.1-4.2-0.8-5.4-1.9c-1.2-1.1-1.9-3-1.9-5.4V46.3c8.9,0,16.2-7.2,16.2-16.2v-1.6h-16.2V8.5z"/>
		<path class="st0" d="M219.9,8.5l-18.5,5.6v62c0,9.8,2.6,16.6,7.8,20.5c5.2,3.8,14.2,5,26.8,3.6V83.4c-3.5,0.2-6.5,0.2-8.9,0.1
			c-2.4-0.1-4.2-0.8-5.4-1.9c-1.2-1.1-1.9-3-1.9-5.4V46.3c8.9,0,16.2-7.2,16.2-16.2v-1.6h-16.2V8.5z"/>
		<path class="st0" d="M286.1,33c5.5,0,10.5,1.3,15,4c4.5,2.7,8,6.2,10.3,10.7l6.5-3.8c-3.1-5.5-7.4-9.9-13.1-13.2
			c-5.7-3.3-11.9-4.9-18.7-4.9c-11.1,0-20.3,3.7-27.6,11c-7.3,7.3-10.9,16.3-10.9,27c0,10.6,3.6,19.6,10.9,27
			c7.3,7.3,16.5,11,27.6,11c6.8,0,13-1.6,18.7-4.9c5.7-3.3,10-7.7,13.1-13.2l-6.5-3.7c-2.3,4.5-5.7,8-10.3,10.7c-4.5,2.7-9.5,4-15,4
			c-9.2,0-16.6-3-22.4-8.9c-5.8-5.9-8.7-13.2-8.7-21.9c0-8.7,2.9-16,8.7-21.9C269.4,36,276.9,33,286.1,33z"/>
		<path class="st0" d="M335.8,56.8v-8.7h-6.9v52.4h6.9V71.4c0-6,1.6-10.4,4.7-13.2c3.1-2.8,7.1-4.2,11.8-4.2v-6.7
			C344.5,47.3,339,50.5,335.8,56.8z"/>
		<path class="st0" d="M382.9,46.9c-8,0-14.6,2.6-19.7,7.9c-5.1,5.2-7.7,11.8-7.7,19.6c0,8,2.6,14.5,7.8,19.7
			c5.2,5.2,11.9,7.8,20.1,7.8c5.1,0,9.6-1.1,13.6-3.3c4-2.2,7.1-5.1,9.4-8.8l-6.1-3.6c-1.5,2.7-3.7,4.8-6.6,6.4
			c-2.9,1.6-6.3,2.5-10.3,2.5c-5.6,0-10.3-1.6-14.1-4.7c-3.8-3.1-6.1-7.3-6.8-12.6h46c0.1-1.4,0.2-2.5,0.2-3.3
			c0-7.5-2.4-14-7.2-19.5C396.9,49.6,390.6,46.9,382.9,46.9z M362.6,71.1c0.7-5.2,2.9-9.4,6.6-12.6c3.7-3.3,8.2-4.9,13.7-4.9
			c4.8,0,8.9,1.5,12.5,4.6c3.6,3.1,5.7,7.4,6.4,12.9H362.6z"/>
		<path class="st0" d="M466.3,58.4c-4.8-7.7-11.9-11.5-21.2-11.5c-7.5,0-13.9,2.7-19.1,8c-5.3,5.3-7.9,11.8-7.9,19.5
			c0,7.7,2.6,14.2,7.9,19.5c5.3,5.3,11.7,8,19.1,8c9.3,0,16.4-3.8,21.2-11.5v10.3h6.9V27.2h-6.9V58.4z M460.3,89.1
			c-4,4-8.9,6-14.7,6c-5.8,0-10.7-2-14.7-6c-4-4-6-8.9-6-14.7c0-5.8,2-10.7,6-14.7c4-4,8.9-6,14.7-6c5.8,0,10.7,2,14.7,6
			c4,4,6,8.9,6,14.7C466.3,80.2,464.3,85.1,460.3,89.1z"/>
		<path class="st1" d="M488.7,27c-1.4,0-2.6,0.5-3.6,1.5c-1,1-1.5,2.2-1.5,3.6c0,1.4,0.5,2.6,1.5,3.6c1,1,2.2,1.5,3.6,1.5
			c1.4,0,2.6-0.5,3.6-1.5c1-1,1.5-2.2,1.5-3.6c0-1.4-0.5-2.6-1.5-3.6C491.3,27.5,490.1,27,488.7,27z"/>
		<rect x="485.3" y="48.1" class="st0" width="6.9" height="52.4"/>
		<path class="st0" d="M525.5,54.9v-6.7h-15.1V33.5l-6.9,2.1v51.1c0,6.1,1.8,10.2,5.5,12.4c3.7,2.2,9.2,2.7,16.5,1.6v-6.1
			c-3.4,0.1-6.2,0.2-8.4,0.2c-2.2,0-3.9-0.7-5-1.9c-1.1-1.2-1.7-3.3-1.7-6.1V54.9H525.5z"/>
		<polygon class="st1" points="75.5,25.9 49.6,0 75.5,0 		"/>
		<path class="st0" d="M48.7,22v46.9c0,4.3-1.3,7.7-3.9,10.2c-2.6,2.5-6.5,3.7-11.7,3.7c-7.5,0-12.9-3.1-16-9.4L0,83.1
			c6.3,12.7,17.3,19,33.1,19c10.3,0,18.8-2.9,25.3-8.7c6.6-5.8,9.9-14,9.9-24.5V41.6L48.7,22z"/>
	</g>
</g>
</svg>
